<mxfile host="app.diagrams.net" agent="Mozilla/5.0 (Windows NT 10.0; Win64; x64) AppleWebKit/537.36 (KHTML, like Gecko) Chrome/122.0.0.0 Safari/537.36" version="24.7.17">
  <diagram name="Página-1" id="QSc5uQVEmcGXGHB-SHIr">
    <mxGraphModel dx="1120" dy="426" grid="1" gridSize="10" guides="1" tooltips="1" connect="1" arrows="1" fold="1" page="1" pageScale="1" pageWidth="827" pageHeight="1169" math="0" shadow="0">
      <root>
        <mxCell id="0" />
        <mxCell id="1" parent="0" />
        <mxCell id="et-gNCcW7UQhUX8ODfVO-1" value="Cliente" style="swimlane;fontStyle=1;align=center;verticalAlign=top;childLayout=stackLayout;horizontal=1;startSize=26;horizontalStack=0;resizeParent=1;resizeParentMax=0;resizeLast=0;collapsible=1;marginBottom=0;whiteSpace=wrap;html=1;" parent="1" vertex="1">
          <mxGeometry x="240" y="56" width="160" height="190" as="geometry" />
        </mxCell>
        <mxCell id="et-gNCcW7UQhUX8ODfVO-2" value="- nome: string&lt;div&gt;- cpf: inteiro&lt;/div&gt;&lt;div&gt;- email: string&lt;/div&gt;&lt;div&gt;- dataNascimento: string&lt;/div&gt;&lt;div&gt;- endereço: string&lt;/div&gt;&lt;div&gt;- telefone: inteiro&lt;/div&gt;" style="text;strokeColor=none;fillColor=none;align=left;verticalAlign=top;spacingLeft=4;spacingRight=4;overflow=hidden;rotatable=0;points=[[0,0.5],[1,0.5]];portConstraint=eastwest;whiteSpace=wrap;html=1;" parent="et-gNCcW7UQhUX8ODfVO-1" vertex="1">
          <mxGeometry y="26" width="160" height="94" as="geometry" />
        </mxCell>
        <mxCell id="et-gNCcW7UQhUX8ODfVO-3" value="" style="line;strokeWidth=1;fillColor=none;align=left;verticalAlign=middle;spacingTop=-1;spacingLeft=3;spacingRight=3;rotatable=0;labelPosition=right;points=[];portConstraint=eastwest;strokeColor=inherit;" parent="et-gNCcW7UQhUX8ODfVO-1" vertex="1">
          <mxGeometry y="120" width="160" height="8" as="geometry" />
        </mxCell>
        <mxCell id="et-gNCcW7UQhUX8ODfVO-4" value="+cadastro()&lt;div&gt;+login()&lt;/div&gt;&lt;div&gt;+atualizaPerfil()&lt;/div&gt;" style="text;strokeColor=none;fillColor=none;align=left;verticalAlign=top;spacingLeft=4;spacingRight=4;overflow=hidden;rotatable=0;points=[[0,0.5],[1,0.5]];portConstraint=eastwest;whiteSpace=wrap;html=1;" parent="et-gNCcW7UQhUX8ODfVO-1" vertex="1">
          <mxGeometry y="128" width="160" height="62" as="geometry" />
        </mxCell>
        <mxCell id="9Wii11p6fcKuwRzObVXF-1" value="Ação" style="swimlane;fontStyle=1;align=center;verticalAlign=top;childLayout=stackLayout;horizontal=1;startSize=26;horizontalStack=0;resizeParent=1;resizeParentMax=0;resizeLast=0;collapsible=1;marginBottom=0;whiteSpace=wrap;html=1;" parent="1" vertex="1">
          <mxGeometry x="240" y="500" width="160" height="180" as="geometry" />
        </mxCell>
        <mxCell id="9Wii11p6fcKuwRzObVXF-2" value="- idAcao: inteiro&lt;div&gt;- nomeAcao: string&lt;/div&gt;&lt;div&gt;- valor: float&lt;/div&gt;&lt;div&gt;- setor: string&lt;/div&gt;" style="text;strokeColor=none;fillColor=none;align=left;verticalAlign=top;spacingLeft=4;spacingRight=4;overflow=hidden;rotatable=0;points=[[0,0.5],[1,0.5]];portConstraint=eastwest;whiteSpace=wrap;html=1;" parent="9Wii11p6fcKuwRzObVXF-1" vertex="1">
          <mxGeometry y="26" width="160" height="74" as="geometry" />
        </mxCell>
        <mxCell id="9Wii11p6fcKuwRzObVXF-3" value="" style="line;strokeWidth=1;fillColor=none;align=left;verticalAlign=middle;spacingTop=-1;spacingLeft=3;spacingRight=3;rotatable=0;labelPosition=right;points=[];portConstraint=eastwest;strokeColor=inherit;" parent="9Wii11p6fcKuwRzObVXF-1" vertex="1">
          <mxGeometry y="100" width="160" height="8" as="geometry" />
        </mxCell>
        <mxCell id="9Wii11p6fcKuwRzObVXF-4" value="+comprar()&lt;div&gt;+vender()&lt;/div&gt;&lt;div&gt;+simular()&lt;/div&gt;&lt;div&gt;+buscar()&lt;/div&gt;" style="text;strokeColor=none;fillColor=none;align=left;verticalAlign=top;spacingLeft=4;spacingRight=4;overflow=hidden;rotatable=0;points=[[0,0.5],[1,0.5]];portConstraint=eastwest;whiteSpace=wrap;html=1;" parent="9Wii11p6fcKuwRzObVXF-1" vertex="1">
          <mxGeometry y="108" width="160" height="72" as="geometry" />
        </mxCell>
        <mxCell id="9Wii11p6fcKuwRzObVXF-28" style="edgeStyle=none;curved=1;rounded=0;orthogonalLoop=1;jettySize=auto;html=1;fontSize=12;startSize=8;endSize=8;endArrow=none;endFill=0;" parent="1" source="9Wii11p6fcKuwRzObVXF-5" target="9Wii11p6fcKuwRzObVXF-1" edge="1">
          <mxGeometry relative="1" as="geometry" />
        </mxCell>
        <mxCell id="9Wii11p6fcKuwRzObVXF-36" value="1..*" style="edgeLabel;html=1;align=center;verticalAlign=middle;resizable=0;points=[];fontSize=12;" parent="9Wii11p6fcKuwRzObVXF-28" vertex="1" connectable="0">
          <mxGeometry x="0.1353" y="-1" relative="1" as="geometry">
            <mxPoint as="offset" />
          </mxGeometry>
        </mxCell>
        <mxCell id="9Wii11p6fcKuwRzObVXF-5" value="Ordem" style="swimlane;fontStyle=1;align=center;verticalAlign=top;childLayout=stackLayout;horizontal=1;startSize=26;horizontalStack=0;resizeParent=1;resizeParentMax=0;resizeLast=0;collapsible=1;marginBottom=0;whiteSpace=wrap;html=1;" parent="1" vertex="1">
          <mxGeometry x="480" y="500" width="160" height="180" as="geometry" />
        </mxCell>
        <mxCell id="9Wii11p6fcKuwRzObVXF-6" value="- idOrdem: inteiro&lt;div&gt;- tipo: string&lt;/div&gt;&lt;div&gt;- status: string&lt;/div&gt;&lt;div&gt;- unidade: float&lt;/div&gt;&lt;div&gt;- valor: float&lt;/div&gt;&lt;div&gt;- data: string&lt;/div&gt;" style="text;strokeColor=none;fillColor=none;align=left;verticalAlign=top;spacingLeft=4;spacingRight=4;overflow=hidden;rotatable=0;points=[[0,0.5],[1,0.5]];portConstraint=eastwest;whiteSpace=wrap;html=1;" parent="9Wii11p6fcKuwRzObVXF-5" vertex="1">
          <mxGeometry y="26" width="160" height="94" as="geometry" />
        </mxCell>
        <mxCell id="9Wii11p6fcKuwRzObVXF-7" value="" style="line;strokeWidth=1;fillColor=none;align=left;verticalAlign=middle;spacingTop=-1;spacingLeft=3;spacingRight=3;rotatable=0;labelPosition=right;points=[];portConstraint=eastwest;strokeColor=inherit;" parent="9Wii11p6fcKuwRzObVXF-5" vertex="1">
          <mxGeometry y="120" width="160" height="8" as="geometry" />
        </mxCell>
        <mxCell id="9Wii11p6fcKuwRzObVXF-8" value="+gerar()&lt;div&gt;+cancelar()&lt;/div&gt;&lt;div&gt;+visualizar()&lt;/div&gt;" style="text;strokeColor=none;fillColor=none;align=left;verticalAlign=top;spacingLeft=4;spacingRight=4;overflow=hidden;rotatable=0;points=[[0,0.5],[1,0.5]];portConstraint=eastwest;whiteSpace=wrap;html=1;" parent="9Wii11p6fcKuwRzObVXF-5" vertex="1">
          <mxGeometry y="128" width="160" height="52" as="geometry" />
        </mxCell>
        <mxCell id="9Wii11p6fcKuwRzObVXF-9" value="Carteira" style="swimlane;fontStyle=1;align=center;verticalAlign=top;childLayout=stackLayout;horizontal=1;startSize=26;horizontalStack=0;resizeParent=1;resizeParentMax=0;resizeLast=0;collapsible=1;marginBottom=0;whiteSpace=wrap;html=1;" parent="1" vertex="1">
          <mxGeometry x="480" y="310" width="160" height="120" as="geometry" />
        </mxCell>
        <mxCell id="9Wii11p6fcKuwRzObVXF-10" value="- Saldo: float" style="text;strokeColor=none;fillColor=none;align=left;verticalAlign=top;spacingLeft=4;spacingRight=4;overflow=hidden;rotatable=0;points=[[0,0.5],[1,0.5]];portConstraint=eastwest;whiteSpace=wrap;html=1;" parent="9Wii11p6fcKuwRzObVXF-9" vertex="1">
          <mxGeometry y="26" width="160" height="26" as="geometry" />
        </mxCell>
        <mxCell id="9Wii11p6fcKuwRzObVXF-11" value="" style="line;strokeWidth=1;fillColor=none;align=left;verticalAlign=middle;spacingTop=-1;spacingLeft=3;spacingRight=3;rotatable=0;labelPosition=right;points=[];portConstraint=eastwest;strokeColor=inherit;" parent="9Wii11p6fcKuwRzObVXF-9" vertex="1">
          <mxGeometry y="52" width="160" height="8" as="geometry" />
        </mxCell>
        <mxCell id="9Wii11p6fcKuwRzObVXF-12" value="+atualizaSaldo()&lt;div&gt;+visualizar()&lt;/div&gt;&lt;div&gt;+açõesCompradas()&lt;/div&gt;" style="text;strokeColor=none;fillColor=none;align=left;verticalAlign=top;spacingLeft=4;spacingRight=4;overflow=hidden;rotatable=0;points=[[0,0.5],[1,0.5]];portConstraint=eastwest;whiteSpace=wrap;html=1;" parent="9Wii11p6fcKuwRzObVXF-9" vertex="1">
          <mxGeometry y="60" width="160" height="60" as="geometry" />
        </mxCell>
        <mxCell id="9Wii11p6fcKuwRzObVXF-15" value="Conta" style="swimlane;fontStyle=1;align=center;verticalAlign=top;childLayout=stackLayout;horizontal=1;startSize=26;horizontalStack=0;resizeParent=1;resizeParentMax=0;resizeLast=0;collapsible=1;marginBottom=0;whiteSpace=wrap;html=1;" parent="1" vertex="1">
          <mxGeometry x="240" y="310" width="160" height="104" as="geometry" />
        </mxCell>
        <mxCell id="9Wii11p6fcKuwRzObVXF-16" value="- numeroConta: inteiro&lt;div&gt;- senha: inteiro&lt;/div&gt;" style="text;strokeColor=none;fillColor=none;align=left;verticalAlign=top;spacingLeft=4;spacingRight=4;overflow=hidden;rotatable=0;points=[[0,0.5],[1,0.5]];portConstraint=eastwest;whiteSpace=wrap;html=1;" parent="9Wii11p6fcKuwRzObVXF-15" vertex="1">
          <mxGeometry y="26" width="160" height="44" as="geometry" />
        </mxCell>
        <mxCell id="9Wii11p6fcKuwRzObVXF-17" value="" style="line;strokeWidth=1;fillColor=none;align=left;verticalAlign=middle;spacingTop=-1;spacingLeft=3;spacingRight=3;rotatable=0;labelPosition=right;points=[];portConstraint=eastwest;strokeColor=inherit;" parent="9Wii11p6fcKuwRzObVXF-15" vertex="1">
          <mxGeometry y="70" width="160" height="8" as="geometry" />
        </mxCell>
        <mxCell id="9Wii11p6fcKuwRzObVXF-18" value="+verificaLogin()" style="text;strokeColor=none;fillColor=none;align=left;verticalAlign=top;spacingLeft=4;spacingRight=4;overflow=hidden;rotatable=0;points=[[0,0.5],[1,0.5]];portConstraint=eastwest;whiteSpace=wrap;html=1;" parent="9Wii11p6fcKuwRzObVXF-15" vertex="1">
          <mxGeometry y="78" width="160" height="26" as="geometry" />
        </mxCell>
        <mxCell id="9Wii11p6fcKuwRzObVXF-20" value="" style="endArrow=none;endFill=0;endSize=24;html=1;rounded=0;fontSize=12;edgeStyle=orthogonalEdgeStyle;exitX=0.5;exitY=0;exitDx=0;exitDy=0;" parent="1" source="9Wii11p6fcKuwRzObVXF-15" target="et-gNCcW7UQhUX8ODfVO-4" edge="1">
          <mxGeometry width="160" relative="1" as="geometry">
            <mxPoint x="320" y="280" as="sourcePoint" />
            <mxPoint x="290" y="260" as="targetPoint" />
            <Array as="points">
              <mxPoint x="320" y="260" />
              <mxPoint x="320" y="260" />
            </Array>
          </mxGeometry>
        </mxCell>
        <mxCell id="9Wii11p6fcKuwRzObVXF-33" value="1" style="edgeLabel;html=1;align=center;verticalAlign=middle;resizable=0;points=[];fontSize=12;" parent="9Wii11p6fcKuwRzObVXF-20" vertex="1" connectable="0">
          <mxGeometry x="-0.1361" y="1" relative="1" as="geometry">
            <mxPoint y="-1" as="offset" />
          </mxGeometry>
        </mxCell>
        <mxCell id="9Wii11p6fcKuwRzObVXF-32" value="" style="endArrow=none;endFill=0;endSize=24;html=1;rounded=0;fontSize=12;curved=1;entryX=1;entryY=0.5;entryDx=0;entryDy=0;exitX=0.004;exitY=0.966;exitDx=0;exitDy=0;exitPerimeter=0;" parent="1" source="9Wii11p6fcKuwRzObVXF-10" target="9Wii11p6fcKuwRzObVXF-16" edge="1">
          <mxGeometry width="160" relative="1" as="geometry">
            <mxPoint x="430" y="370" as="sourcePoint" />
            <mxPoint x="570" y="450" as="targetPoint" />
          </mxGeometry>
        </mxCell>
        <mxCell id="9Wii11p6fcKuwRzObVXF-34" value="1" style="edgeLabel;html=1;align=center;verticalAlign=middle;resizable=0;points=[];fontSize=12;" parent="9Wii11p6fcKuwRzObVXF-32" vertex="1" connectable="0">
          <mxGeometry x="-0.2071" y="4" relative="1" as="geometry">
            <mxPoint as="offset" />
          </mxGeometry>
        </mxCell>
        <mxCell id="9Wii11p6fcKuwRzObVXF-37" style="edgeStyle=none;curved=1;rounded=0;orthogonalLoop=1;jettySize=auto;html=1;entryX=0.5;entryY=0;entryDx=0;entryDy=0;fontSize=12;startSize=8;endSize=8;endArrow=none;endFill=0;" parent="1" source="9Wii11p6fcKuwRzObVXF-12" target="9Wii11p6fcKuwRzObVXF-5" edge="1">
          <mxGeometry relative="1" as="geometry" />
        </mxCell>
        <mxCell id="9Wii11p6fcKuwRzObVXF-38" value="0..*" style="edgeLabel;html=1;align=center;verticalAlign=middle;resizable=0;points=[];fontSize=12;" parent="9Wii11p6fcKuwRzObVXF-37" vertex="1" connectable="0">
          <mxGeometry x="-0.098" y="4" relative="1" as="geometry">
            <mxPoint y="-1" as="offset" />
          </mxGeometry>
        </mxCell>
      </root>
    </mxGraphModel>
  </diagram>
</mxfile>
